<svg width="72" height="72" viewBox="0 0 72 72" fill="none" xmlns="http://www.w3.org/2000/svg">
<circle cx="36" cy="36" r="34" stroke="#C4C4C4" stroke-width="4"/>
<g clip-path="url(#clip0)">
<path d="M51.5619 39.8628L36.8991 54.5274V15.3C36.8991 14.803 36.4962 14.4 35.9991 14.4C35.5021 14.4 35.0991 14.803 35.0991 15.3V54.5274L20.4363 39.8628C20.0788 39.5174 19.509 39.5274 19.1637 39.8849C18.8269 40.2337 18.8269 40.7866 19.1637 41.1353L35.3637 57.3353C35.7147 57.6872 36.2846 57.6879 36.6365 57.3369C36.637 57.3364 36.6376 57.3358 36.6381 57.3353L52.8381 41.1353C53.1834 40.7778 53.1735 40.208 52.816 39.8627C52.4672 39.5258 51.9143 39.5258 51.5655 39.8627L51.5619 39.8628Z" fill="#FFC107"/>
<path d="M35.9991 57.6C35.7602 57.6004 35.531 57.5059 35.3619 57.3372L19.1619 41.1372C18.8165 40.7797 18.8265 40.2099 19.184 39.8645C19.5328 39.5277 20.0857 39.5277 20.4344 39.8645L35.999 55.4273L51.5618 39.8645C51.9193 39.5192 52.4891 39.5292 52.8344 39.8866C53.1714 40.2355 53.1714 40.7884 52.8344 41.1372L36.6344 57.3372C36.4659 57.5054 36.2374 57.5999 35.9991 57.6Z" fill="#C4C4C4"/>
<path d="M35.9991 57.6C35.502 57.6 35.0991 57.197 35.0991 56.7V15.3C35.0991 14.803 35.502 14.4 35.9991 14.4C36.4961 14.4 36.8991 14.803 36.8991 15.3V56.7001C36.8991 57.197 36.4961 57.6 35.9991 57.6Z" fill="#C4C4C4"/>
</g>
<defs>
<clipPath id="clip0">
<rect width="43.2" height="43.2" fill="white" transform="translate(14.4 14.4)"/>
</clipPath>
</defs>
</svg>
